<svg xmlns="http://www.w3.org/2000/svg" viewBox="0 0 2283.96 370.07"><defs><style>.cls-1{fill:#021d49;}</style></defs><g id="Capa_2" data-name="Capa 2"><g id="Capa_1-2" data-name="Capa 1"><g id="Navetec"><path class="cls-1" d="M1335.3,5.43h33a77.67,77.67,0,0,1,30.57,4.76,37.11,37.11,0,0,1,16.91,14.49A39.41,39.41,0,0,1,1422,46.35a38.76,38.76,0,0,1-5.44,20.3,40.36,40.36,0,0,1-15.92,15.1,60.69,60.69,0,0,1,20,10.42,40.2,40.2,0,0,1,11,14.42,42.68,42.68,0,0,1,3.92,18.34,45.28,45.28,0,0,1-14.72,34.12,55.16,55.16,0,0,1-39.48,13.89h-46Zm16.38,16.38v53.6h9.59a75.16,75.16,0,0,0,25.59-3.25,27.48,27.48,0,0,0,13-10.26,26.61,26.61,0,0,0,4.83-15.55,21.81,21.81,0,0,0-8.08-18A40,40,0,0,0,1371,21.81Zm0,70.43v64.1h20.76a74.48,74.48,0,0,0,26.88-3.55,30.82,30.82,0,0,0,13.73-11.25,29.42,29.42,0,0,0-2.11-35.93,37.75,37.75,0,0,0-20.08-11.33,146.72,146.72,0,0,0-29.74-2Z"/><path class="cls-1" d="M1469.14,5.43h16.76v101a211.21,211.21,0,0,0,.68,22.64,37.72,37.72,0,0,0,5.73,16.53,34.64,34.64,0,0,0,14,11.18,44.3,44.3,0,0,0,19,4.45,36.59,36.59,0,0,0,15.93-3.55A34.84,34.84,0,0,0,1554,148a40.83,40.83,0,0,0,7.55-15.1,126.22,126.22,0,0,0,1.67-26.12V5.73H1580v101a124.87,124.87,0,0,1-4.37,36.24,49.19,49.19,0,0,1-17.52,24,50,50,0,0,1-31.85,10.27,61.13,61.13,0,0,1-34.65-9.66A46.18,46.18,0,0,1,1472.23,142a136.08,136.08,0,0,1-3.09-35.26Z"/><path class="cls-1" d="M1603.81,141.54,1618,133q15.09,27.7,34.73,27.7a33.61,33.61,0,0,0,15.77-3.92,27.23,27.23,0,0,0,11.25-10.57,26.68,26.68,0,0,0,3.93-14,28.35,28.35,0,0,0-5.74-16.54,138.31,138.31,0,0,0-28.61-26.79,146.75,146.75,0,0,1-26-22.65,41.34,41.34,0,0,1-8.91-25.59,39.23,39.23,0,0,1,5.21-19.93,37.77,37.77,0,0,1,15.09-14.12,42.17,42.17,0,0,1,20.61-5.21,44,44,0,0,1,22.12,5.89,77,77,0,0,1,21.82,21.52l-13.67,10.41a67,67,0,0,0-16.07-16.53,28.1,28.1,0,0,0-14.57-4,22.67,22.67,0,0,0-16.54,6.19A20.23,20.23,0,0,0,1632,40a25.87,25.87,0,0,0,2.26,10.57,39.38,39.38,0,0,0,8.3,11.17c2.19,2.11,9.44,7.55,21.59,16.68A122.5,122.5,0,0,1,1693.94,107,45.71,45.71,0,0,1,1702,132.1a42.58,42.58,0,0,1-13.82,31.63,46.25,46.25,0,0,1-33.59,13.43A48.91,48.91,0,0,1,1627,169,73.16,73.16,0,0,1,1603.81,141.54Z"/><path class="cls-1" d="M1734.7,5.43h16.76V172.72H1734.7Z"/><path class="cls-1" d="M1789.89,172.72V5.43h3.62l111.34,128.33V5.43h16.46V172.72h-3.7L1807.17,46.05V172.72Z"/><path class="cls-1" d="M1962.15,5.43H2058V21.81h-79.11V74.28h78.43V90.59h-78.43v65.75h78.43v16.38h-95.18Z"/><path class="cls-1" d="M2069.64,141.54l14.2-8.53q15.09,27.7,34.72,27.7a33.65,33.65,0,0,0,15.78-3.92,27.35,27.35,0,0,0,11.25-10.57,26.67,26.67,0,0,0,3.92-14,28.41,28.41,0,0,0-5.73-16.54,136.75,136.75,0,0,0-28.61-26.79,147.17,147.17,0,0,1-26.05-22.65,41.34,41.34,0,0,1-8.91-25.59,38.55,38.55,0,0,1,5.29-19.93,37.77,37.77,0,0,1,14.72-14.12,42.25,42.25,0,0,1,20.61-5.21A43.83,43.83,0,0,1,2143,7.32a76.81,76.81,0,0,1,21.81,21.52L2151.1,39.25A66.81,66.81,0,0,0,2135,22.72a27.92,27.92,0,0,0-14.49-4,22.66,22.66,0,0,0-16.61,6.19A20.2,20.2,0,0,0,2097.5,40a25.72,25.72,0,0,0,2.27,10.57,39.2,39.2,0,0,0,8.3,11.17c2.19,2.11,9.44,7.55,21.67,16.68A123.26,123.26,0,0,1,2159.48,107a45.78,45.78,0,0,1,8.07,25.14,42.57,42.57,0,0,1-13.81,31.63,46.26,46.26,0,0,1-33.59,13.43,48.88,48.88,0,0,1-27.63-8.15A73.91,73.91,0,0,1,2069.64,141.54Z"/><path class="cls-1" d="M2185.67,141.54l14.19-8.53q15.09,27.7,34.73,27.7a33.64,33.64,0,0,0,15.77-3.92,27.73,27.73,0,0,0,11.25-10.57,27.24,27.24,0,0,0,3.85-14,28.86,28.86,0,0,0-5.66-16.54,138.56,138.56,0,0,0-28.61-26.79,151.59,151.59,0,0,1-26.12-22.65,41.72,41.72,0,0,1-8.83-25.59,39.23,39.23,0,0,1,5.21-19.93,37.71,37.71,0,0,1,15.09-14.12,42.47,42.47,0,0,1,20.69-5.21,44.06,44.06,0,0,1,22.12,5.89,76.05,76.05,0,0,1,21.74,21.52L2267.5,39.25a65.56,65.56,0,0,0-16.15-16.53,27.55,27.55,0,0,0-14.5-4,22.66,22.66,0,0,0-16.53,6.19A20,20,0,0,0,2213.9,40a25.72,25.72,0,0,0,2.27,10.57,39.38,39.38,0,0,0,8.3,11.17c2.19,2.11,9.44,7.55,21.59,16.68A122.5,122.5,0,0,1,2275.88,107,46.4,46.4,0,0,1,2284,132.1a42.57,42.57,0,0,1-13.81,31.63,46.26,46.26,0,0,1-33.59,13.43,48.88,48.88,0,0,1-27.63-8.15A73.12,73.12,0,0,1,2185.67,141.54Z"/><path class="cls-1" d="M1334.7,200.5h33.36a191.61,191.61,0,0,1,38.65,2.49,43.36,43.36,0,0,1,23.4,14.49,46.73,46.73,0,0,1,0,55.18,43.4,43.4,0,0,1-24.45,14.65,216,216,0,0,1-42.5,2.71h-11.93v77.75h-16.76Zm16.76,16.38v56.76h28.31a73.18,73.18,0,0,0,25.13-3.09,25.84,25.84,0,0,0,12.54-10.12,28.7,28.7,0,0,0,0-31,25.61,25.61,0,0,0-12-10,72.77,72.77,0,0,0-24.46-3Z"/><path class="cls-1" d="M1526.81,200.5l78,167.28h-18.11L1560.25,313h-72.09l-26,55h-18.65l79-167.5Zm-2.11,35.55L1496,296.44h57.22Z"/><path class="cls-1" d="M1631.66,200.5H1665a203.7,203.7,0,0,1,37.74,2.26A43.74,43.74,0,0,1,1727,217.4a41.89,41.89,0,0,1,9.29,27.63,44.2,44.2,0,0,1-6.42,24,40.33,40.33,0,0,1-18.34,15.7,84.38,84.38,0,0,1-33,5.36l60.39,77.68h-20.69l-60.39-77.68h-9.43v77.68h-16.76Zm16.76,16.38v56.84h28.77a72,72,0,0,0,24.83-3.25,25.67,25.67,0,0,0,12.53-10.19,28.34,28.34,0,0,0,4.46-15.63,27.08,27.08,0,0,0-4.53-15.09,25.09,25.09,0,0,0-12-9.89,72.42,72.42,0,0,0-24.53-2.95Z"/><path class="cls-1" d="M1772.15,200.5h17v62.8l66.89-62.8h22.64l-80.32,75.11L1885,367.78h-22.8l-73.29-77.9v77.9h-17.06Z"/><rect class="cls-1" x="1270.16" y="4.76" width="6.42" height="363.4"/><path class="cls-1" d="M26,4.76H63.78l88.33,135.87V4.76h39.25V211.14H153.62L65.6,75.79V211.14H26.34Z"/><path class="cls-1" d="M282.7,4.76h39.56l79.33,206.38H360.83l-16.16-42.5H260.43l-16.76,42.5H202.83Zm20.15,54.72-27.7,70.89h55.26Z"/><path class="cls-1" d="M381.89,4.76h40.39l51.93,146.59L527.05,4.76h40.31L493,211.14H455.26Z"/><path class="cls-1" d="M591.67,4.76H704.3V43.18H630.7V80.55h73.6v37.74H630.7v54.27h73.6v38.58H591.67Z"/><path class="cls-1" d="M726.34,4.76H840.4V43.48H802.66V211.14H762.8V43.48H726.19Z"/><path class="cls-1" d="M860.33,4.76H973V43.18H899.28V80.55H973v37.74H899.28v54.27H973v38.58H860.33Z"/><path class="cls-1" d="M1192,41.22l-27.4,26.19a85.29,85.29,0,0,0-63.11-29.67,69.08,69.08,0,0,0-70,68.08q0,1,0,2a73.7,73.7,0,0,0,8.91,36.68,65.46,65.46,0,0,0,25.36,25.14,73.4,73.4,0,0,0,36.46,9.13,74.37,74.37,0,0,0,31.25-6.41,111.68,111.68,0,0,0,31.18-23.25l26.57,27.85A147.08,147.08,0,0,1,1148,207.89a118.47,118.47,0,0,1-46.42,8.61,107.11,107.11,0,0,1-78.81-30.2A105.67,105.67,0,0,1,992.14,108a107.08,107.08,0,0,1,14-54.8,103.53,103.53,0,0,1,40-38.57,112.67,112.67,0,0,1,56-14.65A118.61,118.61,0,0,1,1192,41.52Z"/><rect class="cls-1" y="237.18" width="1218.15" height="12.83"/><path class="cls-1" d="M446,292.14l-12.23,11.63a37.76,37.76,0,0,0-28.08-13.22A30.8,30.8,0,0,0,374.49,321v.76a33.14,33.14,0,0,0,4,16.31,28.77,28.77,0,0,0,11.33,11.17A32.53,32.53,0,0,0,406,353.29a33.91,33.91,0,0,0,14-2.87,49.83,49.83,0,0,0,13.81-10.34l11.85,12.38a64.57,64.57,0,0,1-19.25,13.73,52.29,52.29,0,0,1-20.6,3.85,47.48,47.48,0,0,1-35-13.58,46.65,46.65,0,0,1-13.66-34.73,48.14,48.14,0,0,1,6.18-24.38,46.54,46.54,0,0,1,17.82-17.21A50.2,50.2,0,0,1,406,273.65a52.7,52.7,0,0,1,21.89,4.83A51.77,51.77,0,0,1,446,292.14Z"/><path class="cls-1" d="M493.84,276h17.74l35.25,91.8H528.72l-7.55-18.95H483.42l-7.55,18.95H458.13Zm9,24.31-12.3,31.56h24.53Z"/><path class="cls-1" d="M565,276h17.44V351.1H607.9v16.68H565Z"/><path class="cls-1" d="M653.8,276h17.66l35.33,91.8H688.6l-7.18-18.95H643.68l-7.55,18.95H618Zm8.91,24.31L650.4,331.85h24.54Z"/><path class="cls-1" d="M733.74,276H750.8l21.28,64,21.44-64h17l15.1,91.8H808.77l-9.89-58-19.48,58H764.31L745,309.8l-10,58H717.88Z"/><path class="cls-1" d="M872.41,276h17.74l35.33,91.8H907.29l-7.18-18.95H862.37l-7.55,18.95H836.7Zm9,24.31-12.3,31.56h24.53Z"/><path class="cls-1" d="M943.6,276h16.76l39.25,60.39V276h17.51v91.8h-16.83l-39.18-60.39v60.39H943.6Z"/><path class="cls-1" d="M1042.71,276h20.69a68,68,0,0,1,29.74,5,38.12,38.12,0,0,1,16,16.08,52.05,52.05,0,0,1,6.34,26.11,52.73,52.73,0,0,1-3.55,19.48,39.18,39.18,0,0,1-9.74,14.72,33.93,33.93,0,0,1-13.43,8.16,94.57,94.57,0,0,1-25,2.26h-21.06Zm17.36,16.84v57.9h8.08a41.31,41.31,0,0,0,17.43-2.72,21.55,21.55,0,0,0,8.84-9.29,34,34,0,0,0,3.39-16,30.2,30.2,0,0,0-8.15-22.65,32.77,32.77,0,0,0-23.63-7.54Z"/><path class="cls-1" d="M1164.7,276h18.12l35.33,91.8H1200l-7.17-18.95H1155l-7.54,18.95h-18.12Zm9,24.31-12.3,31.56h24.53Z"/></g></g></g></svg>